<svg width="15" height="19" viewBox="0 0 15 19" fill="none" xmlns="http://www.w3.org/2000/svg">
<path d="M0.857232 11.0806C0.857232 9.54964 0.857232 8.01868 0.857232 6.48772C0.857232 5.99782 1.1226 5.67121 1.55127 5.58956C2.04117 5.50791 2.49025 5.85493 2.51067 6.34483C2.51067 6.40607 2.51067 6.48772 2.51067 6.54896C2.51067 9.54964 2.51067 12.5299 2.51067 15.5306C2.51067 16.5308 3.18429 17.2044 4.18452 17.2044C6.3891 17.2044 8.61409 17.2044 10.8187 17.2044C11.8189 17.2044 12.4925 16.5308 12.4925 15.5306C12.4925 12.5095 12.4925 9.4884 12.4925 6.48772C12.4925 6.01823 12.7375 5.69162 13.1457 5.60997C13.6152 5.50791 14.0439 5.8141 14.1255 6.28359C14.146 6.36525 14.146 6.46731 14.146 6.54896C14.146 9.54964 14.146 12.5503 14.146 15.551C14.146 17.2044 13.0437 18.5109 11.4311 18.817C11.2473 18.8579 11.0432 18.8579 10.8391 18.8579C8.59368 18.8579 6.36868 18.8579 4.12328 18.8579C2.26571 18.8579 0.816406 17.4086 0.816406 15.5714C0.857232 14.0813 0.857232 12.5911 0.857232 11.0806Z" fill="#0D7D3F"/>
<path d="M10.8392 3.07913C11.0637 3.07913 11.2474 3.07913 11.4312 3.07913C12.3293 3.07913 13.2275 3.07913 14.1256 3.07913C14.738 3.07913 15.1259 3.58945 14.9626 4.1406C14.8605 4.4672 14.5747 4.69174 14.2277 4.73257C14.1869 4.73257 14.1461 4.73257 14.0848 4.73257C9.69607 4.73257 5.30732 4.73257 0.898163 4.73257C0.36743 4.73257 0 4.38555 0 3.89564C0 3.42615 0.36743 3.07913 0.898163 3.07913C1.89839 3.07913 2.89862 3.07913 3.89884 3.07913C3.98049 3.07913 4.06214 3.07913 4.16421 3.07913C4.16421 2.99748 4.16421 2.93624 4.16421 2.85459C4.16421 2.3851 4.16421 1.9156 4.16421 1.44611C4.16421 0.915377 4.51123 0.568359 5.02154 0.568359C6.65457 0.568359 8.28759 0.568359 9.94103 0.568359C10.4718 0.568359 10.7984 0.915377 10.8188 1.44611C10.8392 1.99725 10.8392 2.52799 10.8392 3.07913ZM9.16534 3.07913C9.16534 2.81377 9.16534 2.5484 9.16534 2.26262C8.06305 2.26262 6.96076 2.26262 5.85847 2.26262C5.85847 2.52799 5.85847 2.79335 5.85847 3.07913C6.96076 3.07913 8.04264 3.07913 9.16534 3.07913Z" fill="#0D7D3F"/>
<path d="M5.02158 10.979C5.02158 10.0196 5.02158 9.03982 5.02158 8.08042C5.02158 7.67216 5.28694 7.34556 5.6952 7.26391C6.06263 7.18226 6.45047 7.38639 6.61377 7.7334C6.67501 7.85588 6.69542 8.01918 6.69542 8.14166C6.69542 10.04 6.69542 11.9384 6.69542 13.8164C6.69542 14.3471 6.32799 14.7146 5.8585 14.7146C5.38901 14.7146 5.04199 14.3267 5.04199 13.8164C5.02158 12.8774 5.02158 11.918 5.02158 10.979Z" fill="#0D7D3F"/>
<path d="M10.0021 10.9992C10.0021 11.9586 10.0021 12.9384 10.0021 13.8978C10.0021 14.2857 9.75712 14.5919 9.36927 14.6939C9.02225 14.796 8.63441 14.6531 8.47111 14.3265C8.38946 14.1836 8.34863 13.9999 8.34863 13.857C8.34863 11.9586 8.34863 10.0398 8.34863 8.14142C8.34863 7.6311 8.71606 7.26367 9.18556 7.26367C9.65505 7.26367 10.0021 7.6311 10.0021 8.16183C10.0021 9.08041 10.0021 10.0398 10.0021 10.9992Z" fill="#0D7D3F"/>
</svg>
